<?xml version="1.0" encoding="UTF-8" standalone="no" ?>
<!DOCTYPE svg PUBLIC "-//W3C//DTD SVG 1.1//EN" "http://www.w3.org/Graphics/SVG/1.1/DTD/svg11.dtd">
<svg xmlns="http://www.w3.org/2000/svg" xmlns:xlink="http://www.w3.org/1999/xlink" version="1.1" width="1080" height="1080" viewBox="0 0 1080 1080" xml:space="preserve">
<desc>Created with Fabric.js 4.2.0</desc>
<defs>
</defs>
<rect x="0" y="0" width="100%" height="100%" fill="transparent"></rect>
<g transform="matrix(1 0 0 1 540 540)" id="b0a656d7-f616-4c5a-835a-a26047b27444"  >
<rect style="stroke: none; stroke-width: 1; stroke-dasharray: none; stroke-linecap: butt; stroke-dashoffset: 0; stroke-linejoin: miter; stroke-miterlimit: 4; fill: rgb(255,255,255); fill-rule: nonzero; opacity: 1;" vector-effect="non-scaling-stroke"  x="-540" y="-540" rx="0" ry="0" width="1080" height="1080" />
</g>
<g transform="matrix(1 0 0 1 540 540)" id="3c14c9b2-334c-4ebe-a352-f648b9aac179"  >
</g>
<g transform="matrix(1 0 0 1 603.79 540)" style="" id="53bfbf3c-465c-4d27-a32b-21c884da0a4b"  >
		<text xml:space="preserve" font-family="Cantarell" font-size="109" font-style="normal" font-weight="700" style="stroke: none; stroke-width: 1; stroke-dasharray: none; stroke-linecap: butt; stroke-dashoffset: 0; stroke-linejoin: miter; stroke-miterlimit: 4; fill: rgb(0,0,0); fill-rule: nonzero; opacity: 1; white-space: pre;" ><tspan x="-125.84" y="34.24" >ARK</tspan></text>
</g>
<g transform="matrix(-0.01 0 0 -0.01 421.14 540)"  >
<path style="stroke: rgb(0,0,0); stroke-width: 0; stroke-dasharray: none; stroke-linecap: butt; stroke-dashoffset: 0; stroke-linejoin: miter; stroke-miterlimit: 4; fill: rgb(0,0,0); fill-rule: nonzero; opacity: 1;" vector-effect="non-scaling-stroke"  transform=" translate(-5880.57, -6403)" d="M 5495 12774 C 5389 12753 5321 12749 4905 12736 C 4393 12719 4319 12713 3910 12646 C 3164 12524 2887 12444 2444 12222 C 1910 11955 1456 11600 1121 11190 C 900 10920 746 10660 596 10308 C 555 10211 469 10018 405 9880 C 235 9511 186 9382 125 9140 C -30 8522 -39 7864 95 6998 C 194 6360 411 5901 795 5515 C 949 5360 1075 5262 1372 5068 C 1445 5020 1627 4888 1775 4774 C 1924 4661 2086 4539 2137 4503 C 2490 4257 2866 4081 3260 3977 C 3408 3938 3422 3936 3570 3936 C 3703 3935 3736 3939 3805 3958 C 3920 3991 4009 4037 4145 4133 C 4335 4268 4532 4356 4765 4411 C 4895 4441 5052 4444 5092 4417 C 5129 4392 5150 4332 5150 4252 C 5150 4177 5043 3498 4972 3120 C 4932 2904 4926 2858 4926 2735 C 4925 2582 4938 2512 4990 2369 C 5123 2005 5488 1694 5865 1625 C 5887 1620 6076 1616 6285 1615 C 6777 1612 6917 1594 7110 1511 C 7227 1461 7302 1407 7439 1276 C 7768 963 8042 768 8673 401 C 9012 203 9137 140 9289 90 C 9494 21 9588 6 9810 6 C 10070 6 10176 31 10270 116 C 10368 204 10390 303 10394 665 C 10398 948 10403 986 10461 1109 C 10504 1202 10571 1291 10648 1357 C 10783 1474 10854 1553 10897 1635 C 10945 1728 10986 1854 11002 1955 C 11012 2019 11011 2030 10992 2073 C 10977 2107 10958 2128 10925 2149 C 10894 2169 10622 2265 10146 2423 C 8371 3017 8232 3069 7998 3242 C 7898 3315 7771 3454 7727 3538 C 7675 3636 7671 3684 7705 3785 C 7731 3865 7898 4199 7927 4232 C 7969 4279 8009 4256 8010 4185 C 8010 4123 7974 3925 7944 3825 C 7880 3610 7881 3535 7949 3456 C 7996 3402 8261 3224 8375 3170 C 8659 3036 9213 2905 10450 2681 C 11052 2571 11095 2565 11170 2580 C 11330 2611 11376 2731 11335 3010 C 11305 3218 11270 3332 11152 3625 C 11034 3917 10988 4113 10987 4335 C 10986 4555 11020 4695 11130 4930 C 11215 5113 11285 5297 11300 5379 C 11306 5413 11309 5444 11307 5447 C 11298 5455 11185 5392 11159 5363 C 11145 5348 11036 5211 10918 5060 C 10685 4763 10628 4700 10614 4722 C 10609 4729 10606 4778 10606 4830 C 10608 4945 10628 5011 10707 5159 C 10831 5390 10970 5570 11112 5684 C 11257 5801 11350 5845 11573 5900 C 11640 5917 11710 5936 11728 5941 L 11760 5952 L 11760 6023 L 11760 6095 L 11697 6129 C 11663 6148 11579 6200 11510 6245 C 11228 6432 11095 6610 11040 6874 C 10949 7316 10949 7640 11039 8010 C 11091 8220 11103 8331 11097 8535 C 11091 8734 11087 8756 10996 9090 C 10916 9388 10885 9515 10851 9696 C 10772 10106 10646 10430 10444 10736 C 10282 10982 10049 11228 9775 11441 C 9692 11505 9576 11601 9515 11654 C 9379 11774 9139 11960 9003 12051 C 8873 12139 8750 12203 8575 12278 C 8173 12448 7848 12538 7040 12700 L 6545 12800 L 6080 12799 C 5633 12798 5610 12797 5495 12774 z M 10160 8530 C 10202 8488 10191 8453 10042 8148 C 9905 7870 9887 7813 9892 7688 C 9896 7573 9918 7521 10015 7400 C 10153 7228 10191 7096 10191 6790 C 10191 6477 10164 6401 10046 6369 C 9990 6354 9844 6364 9750 6390 C 9635 6423 9565 6465 9469 6560 C 9338 6690 9271 6818 9183 7104 C 9142 7239 9138 7260 9142 7329 L 9147 7405 L 9290 7660 C 9453 7951 9656 8292 9727 8395 C 9765 8450 9786 8470 9830 8492 C 9938 8548 10122 8568 10160 8530 z M 6733 6426 C 6796 6403 6835 6365 6914 6247 C 7048 6044 7137 5987 7381 5945 C 7676 5895 7951 5777 8470 5479 C 8599 5404 8745 5321 8794 5294 C 8843 5267 8900 5228 8921 5208 C 8986 5144 8983 5073 8912 5039 C 8879 5023 8708 5027 8300 5055 C 8062 5072 8054 5073 8022 5099 C 7797 5279 7649 5346 7450 5357 C 7273 5366 7107 5323 6905 5214 C 6861 5191 6770 5149 6703 5121 L 6580 5071 L 6468 5122 C 6327 5186 6272 5218 6192 5284 C 5980 5455 5828 5740 5756 6103 C 5707 6346 5726 6378 5813 6199 C 5878 6066 5962 6000 6070 6000 C 6178 6000 6249 6050 6365 6205 C 6449 6317 6505 6372 6570 6405 C 6641 6442 6676 6446 6733 6426 z" stroke-linecap="round" />
</g>
</svg>